<?xml version="1.0" encoding="UTF-8"?>
<svg version="1.1" xmlns="http://www.w3.org/2000/svg" width="518" height="102">
<path d="M0 0 C1.36318359 -0.00386719 1.36318359 -0.00386719 2.75390625 -0.0078125 C5.40895179 0.12358713 7.84910752 0.53523969 10.4375 1.125 C12.34148685 8.06095209 13.39956546 15.0077346 14.4375 22.125 C15.7575 15.195 17.0775 8.265 18.4375 1.125 C22.57003468 0.43624422 25.90776887 -0.01164219 30 0 C31.36318359 -0.00386719 31.36318359 -0.00386719 32.75390625 -0.0078125 C35.41162594 0.12371948 37.83856307 0.57708218 40.4375 1.125 C40.58297716 5.01690083 40.72521642 8.9089067 40.86474609 12.80102539 C40.93555356 14.7586856 41.00875854 16.71625863 41.08203125 18.67382812 C41.37259629 26.83040395 41.48351408 34.96325331 41.4375 43.125 C36.8175 43.125 32.1975 43.125 27.4375 43.125 C26.9425 32.73 26.9425 32.73 26.4375 22.125 C25.1175 29.055 23.7975 35.985 22.4375 43.125 C17.4875 43.125 12.5375 43.125 7.4375 43.125 C5.67005171 36.1355454 4.00227728 29.16649776 2.4375 22.125 C2.1075 29.055 1.7775 35.985 1.4375 43.125 C-2.8525 43.125 -7.1425 43.125 -11.5625 43.125 C-11.5625 29.265 -11.5625 15.405 -11.5625 1.125 C-7.42996532 0.43624422 -4.09223113 -0.01164219 0 0 Z " fill="#010102" transform="translate(282.5625,31.875)"/>
<path d="M0 0 C0.79470703 -0.020625 1.58941406 -0.04125 2.40820312 -0.0625 C7.42127647 -0.0956717 10.86050365 0.44205556 15.1875 3.25 C20.07964737 9.46434936 20.38815056 14.46885555 20.4375 22.0625 C20.458125 22.84431641 20.47875 23.62613281 20.5 24.43164062 C20.54273102 30.82526976 19.54460062 35.75820792 15 40.5625 C7.13116517 45.2838009 -2.0478972 45.15327707 -10.765625 43.00390625 C-14.04785294 41.79499405 -15.73847595 40.0153654 -17.8125 37.25 C-20.01061714 32.10811467 -20.17885483 27.37332843 -20.1875 21.875 C-20.21199219 21.06289063 -20.23648438 20.25078125 -20.26171875 19.4140625 C-20.28996856 13.53810219 -19.08003936 9.16969129 -15.8125 4.25 C-11.07470033 -0.20066029 -6.13219833 0.0392147 0 0 Z M-2.8125 12.25 C-4.39227708 15.40955417 -3.99697084 18.78463817 -4 22.25 C-4.01224609 22.98734375 -4.02449219 23.7246875 -4.03710938 24.484375 C-4.04237395 26.40770058 -3.93453447 28.33054263 -3.8125 30.25 C-3.1525 30.91 -2.4925 31.57 -1.8125 32.25 C0.76290213 32.08492354 0.76290213 32.08492354 3.1875 31.25 C4.69679383 28.23141234 4.41260073 25.12099046 4.4375 21.8125 C4.458125 21.13123047 4.47875 20.44996094 4.5 19.74804688 C4.54206799 15.74204487 4.54206799 15.74204487 2.734375 12.27734375 C0.29109113 10.65465774 0.28220354 11.21843215 -2.8125 12.25 Z " fill="#000001" transform="translate(158.8125,31.75)"/>
<path d="M0 0 C0.7425 -0.020625 1.485 -0.04125 2.25 -0.0625 C7.11625549 -0.0968905 10.41703248 0.54983494 14.625 3.25 C19.38078865 9.41967176 19.82966093 14.03038875 19.875 21.5 C19.895625 22.33402344 19.91625 23.16804688 19.9375 24.02734375 C19.97861875 30.57550541 18.82449274 35.11995264 15 40.5625 C9.6177618 44.38672188 2.06299827 45.01161163 -4.375 44.25 C-9.18510022 43.31854338 -13.14581773 42.32553449 -16.875 39.0625 C-21.4632501 30.45953106 -21.92233319 19.55775615 -19.1875 10.25 C-17.67680622 6.37350276 -15.689036 3.83656469 -12.375 1.25 C-8.31997289 -0.04554242 -4.21914844 0.02899758 0 0 Z M-1.375 11.25 C-4.72951951 14.78153901 -4.752649 17.54660038 -4.6875 22.3125 C-4.68363281 23.54097656 -4.67976563 24.76945312 -4.67578125 26.03515625 C-4.61753222 29.40054665 -4.61753222 29.40054665 -2.375 32.25 C-0.725 31.92 0.925 31.59 2.625 31.25 C5.44073751 25.28726175 4.38322476 19.5822014 3.625 13.25 C1.15 12.26 1.15 12.26 -1.375 11.25 Z " fill="#010101" transform="translate(65.375,31.75)"/>
<path d="M0 0 C1.31581055 -0.0309375 1.31581055 -0.0309375 2.65820312 -0.0625 C9.40136288 -0.102848 14.42903434 0.70930795 19.5625 5.4375 C21.64818083 9.04733221 22.40814792 12.08220588 22.1875 16.25 C20.78857587 19.95714895 19.20232132 22.66586744 16.1875 25.25 C16.765 25.848125 17.3425 26.44625 17.9375 27.0625 C21.08098895 31.51577601 24.1875 37.66539401 24.1875 43.25 C18.5775 43.25 12.9675 43.25 7.1875 43.25 C5.3125 36.3125 5.3125 36.3125 4.73486328 34.12524414 C4.27797145 32.48263148 3.73443784 30.86486393 3.1875 29.25 C2.5275 28.92 1.8675 28.59 1.1875 28.25 C1.1875 33.2 1.1875 38.15 1.1875 43.25 C-3.7625 43.25 -8.7125 43.25 -13.8125 43.25 C-13.8125 29.39 -13.8125 15.53 -13.8125 1.25 C-9.10352616 0.07275654 -4.82900785 0.02801455 0 0 Z M1.1875 11.25 C1.1875 14.22 1.1875 17.19 1.1875 20.25 C4.93025212 19.67874646 4.93025212 19.67874646 6.1875 18.25 C6.4375773 15.79190002 6.4375773 15.79190002 6.1875 13.25 C5.5275 12.59 4.8675 11.93 4.1875 11.25 C3.1975 11.25 2.2075 11.25 1.1875 11.25 Z " fill="#010101" transform="translate(485.8125,31.75)"/>
<path d="M0 0 C0.88429688 0.00128906 1.76859375 0.00257812 2.6796875 0.00390625 C6.98143486 0.06238922 9.94824278 0.21074014 13.75 2.375 C13.875 9 13.875 9 12.75 12.375 C11.28626953 12.35759766 11.28626953 12.35759766 9.79296875 12.33984375 C8.52066406 12.33082031 7.24835938 12.32179688 5.9375 12.3125 C4.67292969 12.30089844 3.40835938 12.28929687 2.10546875 12.27734375 C-1.24605237 12.21340884 -1.24605237 12.21340884 -4.25 13.375 C-5.66514574 16.20529148 -5.45780992 18.65879133 -5.5 21.8125 C-5.52578125 22.96621094 -5.5515625 24.11992188 -5.578125 25.30859375 C-5.50216139 28.33854574 -5.50216139 28.33854574 -3.921875 30.28515625 C-2.16375743 31.64804433 -2.16375743 31.64804433 0.75 31.375 C0.75 30.055 0.75 28.735 0.75 27.375 C-0.57 27.045 -1.89 26.715 -3.25 26.375 C-3.375 23 -3.375 23 -3.25 19.375 C-1.25 17.375 -1.25 17.375 2.19140625 17.14453125 C3.56517304 17.14852089 4.93894114 17.16326823 6.3125 17.1875 C7.01052734 17.18814453 7.70855469 17.18878906 8.42773438 17.18945312 C13.60968842 17.23468842 13.60968842 17.23468842 14.75 18.375 C14.83713831 20.08272358 14.85700007 21.79398649 14.84765625 23.50390625 C14.84443359 24.53837891 14.84121094 25.57285156 14.83789062 26.63867188 C14.82532227 28.2715918 14.82532227 28.2715918 14.8125 29.9375 C14.80798828 31.02998047 14.80347656 32.12246094 14.79882812 33.24804688 C14.78699826 35.95708495 14.77051543 38.66601599 14.75 41.375 C5.96099169 44.65568974 -4.67987656 46.05283377 -13.51953125 42.3046875 C-17.88221406 39.96085339 -19.40048136 37.46077592 -21 32.875 C-23.41763465 23.77881659 -22.76509865 15.64419579 -19.90625 6.75 C-15.20012494 0.00159426 -7.5719212 -0.21345178 0 0 Z " fill="#010101" transform="translate(115.25,31.625)"/>
<path d="M0 0 C0.33 4.62 0.66 9.24 1 14 C1.721875 11.89625 2.44375 9.7925 3.1875 7.625 C5.32920316 1.38346507 5.32920316 1.38346507 8.453125 -0.40234375 C13.03182862 -1.47679414 17.50896435 -1.43713141 22 0 C21.21057855 5.44498386 18.68515146 9.81069834 16.1796875 14.6484375 C14.23751236 20.16627283 15.54931488 24.23554714 17.84765625 29.40234375 C18.57630811 30.91872736 19.31477605 32.43042944 20.0625 33.9375 C20.43955078 34.71673828 20.81660156 35.49597656 21.20507812 36.29882812 C22.12815055 38.20339529 23.06289062 40.10230013 24 42 C18.72 42 13.44 42 8 42 C5.69 37.05 3.38 32.1 1 27 C0.67 31.95 0.34 36.9 0 42 C-4.95 42 -9.9 42 -15 42 C-15 28.14 -15 14.28 -15 0 C-9.85630944 -1.71456352 -5.16239286 -1.29059821 0 0 Z " fill="#010101" transform="translate(398,33)"/>
<path d="M0 0 C1.010625 -0.00257812 2.02125 -0.00515625 3.0625 -0.0078125 C6 0.125 6 0.125 11 1.125 C14.96 14.985 18.92 28.845 23 43.125 C17.39 43.125 11.78 43.125 6 43.125 C5.67 40.155 5.34 37.185 5 34.125 C1.7 34.125 -1.6 34.125 -5 34.125 C-5.33 37.095 -5.66 40.065 -6 43.125 C-11.28 43.125 -16.56 43.125 -22 43.125 C-20.875 35.25 -20.875 35.25 -19.96850586 32.11743164 C-19.76837387 31.41723404 -19.56824188 30.71703644 -19.36204529 29.99562073 C-19.04168053 28.90144081 -19.04168053 28.90144081 -18.71484375 27.78515625 C-18.3840255 26.63472084 -18.3840255 26.63472084 -18.04652405 25.46104431 C-17.34788431 23.03524327 -16.64280554 20.61137033 -15.9375 18.1875 C-15.45985808 16.53332676 -14.98264029 14.87903099 -14.50585938 13.22460938 C-13.34213858 9.18997299 -12.17264315 5.15705176 -11 1.125 C-7.25533691 0.33012738 -3.83474959 -0.00978252 0 0 Z M-1 14.125 C-1.66 17.755 -2.32 21.385 -3 25.125 C-1.02 25.125 0.96 25.125 3 25.125 C2.34 21.495 1.68 17.865 1 14.125 C0.34 14.125 -0.32 14.125 -1 14.125 Z " fill="#010101" transform="translate(353,31.875)"/>
<path d="M0 0 C10.23 0 20.46 0 31 0 C31 3.96 31 7.92 31 12 C25.72 12 20.44 12 15 12 C15 13.32 15 14.64 15 16 C15.85464844 15.98839844 16.70929688 15.97679687 17.58984375 15.96484375 C18.69457031 15.95582031 19.79929687 15.94679688 20.9375 15.9375 C22.03964844 15.92589844 23.14179688 15.91429687 24.27734375 15.90234375 C27 16 27 16 28 17 C28.14115161 19.67058851 28.04247107 22.32432238 28 25 C23.71 25 19.42 25 15 25 C15 26.65 15 28.3 15 30 C20.28 30 25.56 30 31 30 C31 33.96 31 37.92 31 42 C20.77 42 10.54 42 0 42 C0 28.14 0 14.28 0 0 Z " fill="#000001" transform="translate(430,33)"/>
<path d="M0 0 C0.33 9.24 0.66 18.48 1 28 C4.96 28.33 8.92 28.66 13 29 C13 32.63 13 36.26 13 40 C3.43 40 -6.14 40 -16 40 C-16 26.47 -16 12.94 -16 -1 C-9.78871 -2.5528225 -5.99004603 -2.39601841 0 0 Z " fill="#010101" transform="translate(25,34)"/>
<path d="M0 0 C3.3 1.98 6.6 3.96 10 6 C7.72350424 11.69123941 4.76322198 16.65633722 1.60522461 21.89355469 C0.56345643 23.62341185 -0.46955837 25.35828632 -1.50195312 27.09375 C-2.48905273 28.73730469 -2.48905273 28.73730469 -3.49609375 30.4140625 C-4.09607178 31.4138916 -4.6960498 32.4137207 -5.31420898 33.44384766 C-6.76296938 35.64059224 -7.93367304 37.38625869 -10 39 C-13.5625 39.375 -13.5625 39.375 -17 39 C-19 36 -19 36 -18.84545898 33.21166992 C-17.8815785 29.55014876 -16.42884209 26.85378029 -14.47265625 23.61328125 C-14.12367783 23.02959274 -13.7746994 22.44590424 -13.41514587 21.8445282 C-12.30641433 19.99504268 -11.18467574 18.1538522 -10.0625 16.3125 C-9.31229555 15.06496718 -8.56293812 13.81692458 -7.81445312 12.56835938 C-2.64583899 3.96875848 -2.64583899 3.96875848 0 0 Z " fill="#A034F9" transform="translate(236,47)"/>
<path d="M0 0 C7.94791483 7.94791483 14.56630483 16.78498229 14.7668457 28.34204102 C14.65277388 32.25312518 14.39857757 36.10682317 14 40 C13.34 40 12.68 40 12 40 C10.47960776 37.96285813 9.08917714 35.93248612 7.71875 33.796875 C7.30459839 33.16267639 6.89044678 32.52847778 6.46374512 31.87506104 C5.58633469 30.52869271 4.71228368 29.18013015 3.84130859 27.82958984 C2.5119047 25.76845727 1.17298684 23.71378754 -0.16796875 21.66015625 C-1.01879748 20.35193194 -1.86907573 19.04334941 -2.71875 17.734375 C-3.31725769 16.81383331 -3.31725769 16.81383331 -3.92785645 15.87469482 C-5.80262614 12.96414468 -7.44764659 10.10470681 -9 7 C-6.03 4.69 -3.06 2.38 0 0 Z " fill="#9B38F0" transform="translate(201,37)"/>
<path d="M0 0 C0 1.65 0 3.3 0 5 C-0.61488281 5.24234375 -1.22976563 5.4846875 -1.86328125 5.734375 C-7.92919969 8.10631404 -7.92919969 8.10631404 -12 13 C-11.67 13.33 -11.34 13.66 -11 14 C-10.29875 13.195625 -9.5975 12.39125 -8.875 11.5625 C-5.73708407 8.76566189 -4.11241237 8.28691249 0 8 C0.38434943 12.80436782 0.47968712 16.09024857 -1.8125 20.4375 C-4 23 -4 23 -7 25 C-12.05079484 24.85569158 -15.94403679 21.72745913 -20 19 C-19.60589977 13.18702163 -19.16692613 10.35538008 -15 6 C-12.08984375 4.19921875 -12.08984375 4.19921875 -8.9375 2.6875 C-7.89464844 2.17574219 -6.85179687 1.66398437 -5.77734375 1.13671875 C-3 0 -3 0 0 0 Z " fill="#983CE8" transform="translate(261,19)"/>
<path d="M0 0 C1.98 0 3.96 0 6 0 C8.9325825 6.647187 9.93615369 13.78630048 9 21 C7.58100035 24.48922609 5.65740187 27.50471246 3.5625 30.625 C2.7880957 31.84509766 2.7880957 31.84509766 1.99804688 33.08984375 C-0.63167972 37.18052957 -0.63167972 37.18052957 -2 39 C-2.33 39 -2.66 39 -3 39 C-3.02465881 35.03069011 -3.04284023 31.06140966 -3.05493164 27.09204102 C-3.05997057 25.74079614 -3.06680177 24.38955674 -3.07543945 23.03833008 C-3.08752419 21.09979566 -3.09269828 19.161222 -3.09765625 17.22265625 C-3.10289307 16.05484619 -3.10812988 14.88703613 -3.11352539 13.68383789 C-3 11 -3 11 -2 10 C-0.48071962 9.92820036 1.04167482 9.91607993 2.5625 9.9375 C3.38878906 9.94652344 4.21507812 9.95554687 5.06640625 9.96484375 C5.70449219 9.97644531 6.34257812 9.98804688 7 10 C7 9.34 7 8.68 7 8 C4.03 8 1.06 8 -2 8 C-1.125 2.25 -1.125 2.25 0 0 Z " fill="#A333F9" transform="translate(220,35)"/>
<path d="M0 0 C4.79979555 2.05406098 7.61514454 5.40310468 10 10 C9.625 13 9.625 13 8 16 C7.28982946 17.45743954 6.58155739 18.9158054 5.875 20.375 C5.2539497 21.58536811 4.63032133 22.79443396 4 24 C3.34 24 2.68 24 2 24 C1.63076923 17.47692308 1.63076923 17.47692308 3.5 15.0625 C3.995 14.711875 4.49 14.36125 5 14 C4.34 12.35 3.68 10.7 3 9 C1.35 9.33 -0.3 9.66 -2 10 C-2.5534764 12.07553648 -3 13.84365964 -3 16 C-2.01 16.33 -1.02 16.66 0 17 C0 19.31 0 21.62 0 24 C-3 23 -3 23 -4.45703125 20.671875 C-5.12798828 19.22554687 -5.12798828 19.22554687 -5.8125 17.75 C-6.27269531 16.79609375 -6.73289063 15.8421875 -7.20703125 14.859375 C-8.18039045 11.34952803 -7.75703808 10.13793604 -6 7 C-4.4921875 4.98046875 -4.4921875 4.98046875 -2.875 3.1875 C-2.33617187 2.58292969 -1.79734375 1.97835938 -1.2421875 1.35546875 C-0.83226562 0.90816406 -0.42234375 0.46085938 0 0 Z " fill="#9241E2" transform="translate(222,9)"/>
<path d="M0 0 C1.98 0 3.96 0 6 0 C8.92095646 6.62083464 9.92189765 13.80440927 9 21 C7 24.125 7 24.125 5 26 C4.95758277 23.66705225 4.95907063 21.33297433 5 19 C5.33 18.67 5.66 18.34 6 18 C6.23287008 16.31816052 6.41264166 14.6287584 6.5625 12.9375 C6.64628906 12.01839844 6.73007813 11.09929688 6.81640625 10.15234375 C6.87699219 9.44207031 6.93757812 8.73179688 7 8 C4.03 8 1.06 8 -2 8 C-1.125 2.25 -1.125 2.25 0 0 Z " fill="#9C43E4" transform="translate(220,35)"/>
<path d="M0 0 C2.0625 0.4375 2.0625 0.4375 4 1 C3.01 1.495 3.01 1.495 2 2 C2 7.94 2 13.88 2 20 C2.99 19.67 3.98 19.34 5 19 C3.62466078 23.01140606 1.68983519 25.74704891 -1 29 C-1.02465881 25.03069011 -1.04284023 21.06140966 -1.05493164 17.09204102 C-1.05997057 15.74079614 -1.06680177 14.38955674 -1.07543945 13.03833008 C-1.08752419 11.09979566 -1.09269828 9.161222 -1.09765625 7.22265625 C-1.10289307 6.05484619 -1.10812988 4.88703613 -1.11352539 3.68383789 C-1 1 -1 1 0 0 Z " fill="#8F49D7" transform="translate(218,45)"/>
<path d="M0 0 C2.97 1.65 5.94 3.3 9 5 C8.67 6.65 8.34 8.3 8 10 C5 11 5 11 2.95703125 10.00390625 C2.24933594 9.52824219 1.54164063 9.05257812 0.8125 8.5625 C0.09707031 8.08941406 -0.61835938 7.61632813 -1.35546875 7.12890625 C-1.89816406 6.75636719 -2.44085938 6.38382813 -3 6 C-2.42655063 3.13275314 -2.1385485 2.1385485 0 0 Z " fill="#9539E7" transform="translate(241,40)"/>
<path d="M0 0 C0 1.65 0 3.3 0 5 C-0.90492188 5.36351562 -0.90492188 5.36351562 -1.828125 5.734375 C-6.29906004 7.60928324 -9.84833717 9.16319307 -13 13 C-12.49396008 10.83125748 -12.00016187 9.00032373 -11 7 C-11.66 6.34 -12.32 5.68 -13 5 C-11.39967863 4.15930585 -9.79458829 3.32768495 -8.1875 2.5 C-6.84751953 1.80390625 -6.84751953 1.80390625 -5.48046875 1.09375 C-3 0 -3 0 0 0 Z " fill="#8D38E0" transform="translate(261,19)"/>
<path d="M0 0 C0.763125 0.61875 1.52625 1.2375 2.3125 1.875 C4.99625809 4.05597052 4.99625809 4.05597052 8 6 C6.74874616 9.75376152 5.4347596 10.24073289 2 12 C1.34 12 0.68 12 0 12 C-0.38897161 10.37828761 -0.76078298 8.75245075 -1.125 7.125 C-1.43824219 5.76761719 -1.43824219 5.76761719 -1.7578125 4.3828125 C-1.83773437 3.59648438 -1.91765625 2.81015625 -2 2 C-1.34 1.34 -0.68 0.68 0 0 Z " fill="#903FE0" transform="translate(191,29)"/>
<path d="M0 0 C0.66 0.33 1.32 0.66 2 1 C1.94004678 2.79260132 1.8512759 4.58425795 1.75 6.375 C1.70359375 7.37273438 1.6571875 8.37046875 1.609375 9.3984375 C1 12 1 12 -1.046875 13.3515625 C-1.69140625 13.56554688 -2.3359375 13.77953125 -3 14 C-3 12.35 -3 10.7 -3 9 C-3.99 9.33 -4.98 9.66 -6 10 C-4.79157144 5.56909529 -3.48331435 3.01887244 0 0 Z " fill="#A035F9" transform="translate(257,27)"/>
<path d="M0 0 C2.625 0.375 2.625 0.375 5 1 C5 3.31 5 5.62 5 8 C3.0085944 8.38133299 1.00720923 8.71325582 -1 9 C-2 8 -2 8 -2.1875 5.0625 C-2 2 -2 2 0 0 Z " fill="#A232FC" transform="translate(221,75)"/>
<path d="M0 0 C3.3 1.98 6.6 3.96 10 6 C8 11 8 11 6 13 C5 8.25 5 8.25 5 6 C3.02 5.34 1.04 4.68 -1 4 C-1.33 4.99 -1.66 5.98 -2 7 C-2.33 6.34 -2.66 5.68 -3 5 C-2.01 3.35 -1.02 1.7 0 0 Z " fill="#9543DA" transform="translate(236,47)"/>
<path d="M0 0 C2.04470249 1.66736408 2.92566921 2.52497566 3.34057617 5.17651367 C3.32486572 5.99869385 3.30915527 6.82087402 3.29296875 7.66796875 C3.28330078 8.56064453 3.27363281 9.45332031 3.26367188 10.37304688 C3.23853516 11.30181641 3.21339844 12.23058594 3.1875 13.1875 C3.17396484 14.12787109 3.16042969 15.06824219 3.14648438 16.03710938 C3.11113096 18.35865038 3.06178674 20.67903653 3 23 C2.34 23 1.68 23 1 23 C-0.5078125 20.8125 -0.5078125 20.8125 -2.125 18 C-2.66382813 17.071875 -3.20265625 16.14375 -3.7578125 15.1875 C-4.16773438 14.465625 -4.57765625 13.74375 -5 13 C-3.68 13.33 -2.36 13.66 -1 14 C-0.67 15.65 -0.34 17.3 0 19 C0.66 19 1.32 19 2 19 C1.85761163 16.95809019 1.71092972 14.91647955 1.5625 12.875 C1.48128906 11.73804687 1.40007812 10.60109375 1.31640625 9.4296875 C1.02269035 6.2459522 0.56875687 3.14489093 0 0 Z " fill="#8949C8" transform="translate(212,54)"/>
<path d="M0 0 C0.33 0 0.66 0 1 0 C1.33 1.98 1.66 3.96 2 6 C3.98 6 5.96 6 8 6 C8.33 4.68 8.66 3.36 9 2 C9.99 2.33 10.98 2.66 12 3 C9.125 7.875 9.125 7.875 8 9 C4.5625 9.25 4.5625 9.25 1 9 C-1 6 -1 6 -0.625 2.8125 C-0.41875 1.884375 -0.2125 0.95625 0 0 Z " fill="#8E44D8" transform="translate(218,77)"/>
<path d="M0 0 C0.66 0.33 1.32 0.66 2 1 C-1.3 6.61 -4.6 12.22 -8 18 C-8.66 16.68 -9.32 15.36 -10 14 C-9.125 11.75 -9.125 11.75 -8 10 C-7.01 10 -6.02 10 -5 10 C-5.33 8.68 -5.66 7.36 -6 6 C-5.34 6 -4.68 6 -4 6 C-3.67 5.34 -3.34 4.68 -3 4 C-2.34 4 -1.68 4 -1 4 C-0.67 2.68 -0.34 1.36 0 0 Z " fill="#8E46D5" transform="translate(240,60)"/>
<path d="M0 0 C2.91488977 2.6234008 4.88503898 5.71816394 7 9 C6.67 9.66 6.34 10.32 6 11 C3.44911277 9.94446046 2.14610418 9.20089325 0.5 6.9375 C-1.24509481 4.6834192 -2.23423473 4.38148486 -5 4 C-3.35 2.68 -1.7 1.36 0 0 Z " fill="#9540E0" transform="translate(201,37)"/>
<path d="M0 0 C0.99 0.33 1.98 0.66 3 1 C3 4.63 3 8.26 3 12 C2.34 11.67 1.68 11.34 1 11 C1 10.01 1 9.02 1 8 C0.34 8 -0.32 8 -1 8 C-1.04241723 5.66705225 -1.04092937 3.33297433 -1 1 C-0.67 0.67 -0.34 0.34 0 0 Z " fill="#9F32FB" transform="translate(210,60)"/>
<path d="M0 0 C0.66 0.33 1.32 0.66 2 1 C2.63019694 10.01531729 2.63019694 10.01531729 0 14.125 C-0.66 14.74375 -1.32 15.3625 -2 16 C-2.04241723 13.66705225 -2.04092937 11.33297433 -2 9 C-1.67 8.67 -1.34 8.34 -1 8 C-0.76924918 6.65252916 -0.58846937 5.29622435 -0.4375 3.9375 C-0.293125 2.638125 -0.14875 1.33875 0 0 Z " fill="#9144D9" transform="translate(227,45)"/>
<path d="M0 0 C-0.42257276 1.4835001 -0.86356322 2.96176424 -1.3125 4.4375 C-1.55613281 5.26121094 -1.79976562 6.08492187 -2.05078125 6.93359375 C-2.36402344 7.61550781 -2.67726562 8.29742187 -3 9 C-3.99 9.33 -4.98 9.66 -6 10 C-6.36567164 3.539801 -6.36567164 3.539801 -4.6875 1.0625 C-3 0 -3 0 0 0 Z " fill="#9150D8" transform="translate(230,23)"/>
<path d="M0 0 C4.55384615 -0.36923077 4.55384615 -0.36923077 6.8125 1.5 C7.204375 1.995 7.59625 2.49 8 3 C7.67 3.66 7.34 4.32 7 5 C4.51587793 5.82804069 2.64779693 6 0 6 C0 4.02 0 2.04 0 0 Z " fill="#A532FB" transform="translate(195,41)"/>
<path d="M0 0 C0.68707555 2.49064888 1 4.37886292 1 7 C-0.75 8.60546875 -0.75 8.60546875 -3 10.1875 C-3.7425 10.71730469 -4.485 11.24710938 -5.25 11.79296875 C-5.8275 12.19128906 -6.405 12.58960937 -7 13 C-5.35821735 8.22390502 -2.73453298 4.20617096 0 0 Z " fill="#943EE0" transform="translate(226,64)"/>
<path d="M0 0 C0.99 0 1.98 0 3 0 C3.32374517 5.50366792 3.53286034 9.43672206 0 14 C-0.66 13.67 -1.32 13.34 -2 13 C-1.67 12.154375 -1.34 11.30875 -1 10.4375 C0.06105954 6.79010784 0.15109013 3.77725336 0 0 Z " fill="#8B47D1" transform="translate(258,27)"/>
<path d="M0 0 C2.5625 2.25 2.5625 2.25 5 5 C4.8125 7.3125 4.8125 7.3125 4 9 C3.01 9 2.02 9 1 9 C0.01 7.02 -0.98 5.04 -2 3 C-1.34 2.67 -0.68 2.34 0 2 C0 1.34 0 0.68 0 0 Z " fill="#8A3FDA" transform="translate(227,14)"/>
<path d="M0 0 C3.465 1.98 3.465 1.98 7 4 C4.3333581 5.33332095 2.83319697 4.67102033 0 4 C0 4.99 0 5.98 0 7 C-0.99 6.67 -1.98 6.34 -3 6 C-2.42655063 3.13275314 -2.1385485 2.1385485 0 0 Z " fill="#9243D8" transform="translate(241,40)"/>
<path d="M0 0 C0 1.65 0 3.3 0 5 C-1.65 5.33 -3.3 5.66 -5 6 C-4.67 5.34 -4.34 4.68 -4 4 C-4.99 3.34 -5.98 2.68 -7 2 C-4.35261084 0.5393715 -3.10551666 0 0 0 Z " fill="#7F3BC8" transform="translate(261,19)"/>
<path d="M0 0 C1.32 0.66 2.64 1.32 4 2 C3.67 3.32 3.34 4.64 3 6 C1.0625 5.6875 1.0625 5.6875 -1 5 C-1.33 4.01 -1.66 3.02 -2 2 C-1.34 1.34 -0.68 0.68 0 0 Z " fill="#7B3FC2" transform="translate(186,23)"/>
<path d="M0 0 C0.99 0 1.98 0 3 0 C2.50168276 3.68754757 1.89932357 5.60490662 -1 8 C-1.625 5.6875 -1.625 5.6875 -2 3 C-1.34 2.01 -0.68 1.02 0 0 Z " fill="#933FDF" transform="translate(232,70)"/>
<path d="M0 0 C1.65 1.65 3.3 3.3 5 5 C4.38125 4.79375 3.7625 4.5875 3.125 4.375 C2.42375 4.25125 1.7225 4.1275 1 4 C0.34 4.66 -0.32 5.32 -1 6 C-1.625 4.125 -1.625 4.125 -2 2 C-1.34 1.34 -0.68 0.68 0 0 Z " fill="#8749CC" transform="translate(191,29)"/>
<path d="M0 0 C0.99 0.66 1.98 1.32 3 2 C1.68 3.65 0.36 5.3 -1 7 C-1.625 4.625 -1.625 4.625 -2 2 C-1.34 1.34 -0.68 0.68 0 0 Z " fill="#893CE4" transform="translate(243,53)"/>
<path d="M0 0 C0.99 0.33 1.98 0.66 3 1 C2.67 2.32 2.34 3.64 2 5 C1.01 5 0.02 5 -1 5 C-0.67 3.35 -0.34 1.7 0 0 Z " fill="#8A56D8" transform="translate(222,19)"/>
<path d="M0 0 C1.32 1.65 2.64 3.3 4 5 C3.34 6.32 2.68 7.64 2 9 C0.4375 6.1875 0.4375 6.1875 -1 3 C-0.67 2.01 -0.34 1.02 0 0 Z " fill="#8D47D1" transform="translate(215,18)"/>
</svg>
